{
    "asset" : {
        "extensions" : {
            "ASOBO_normal_map_convention" : {
                "tangent_space_convention" : "DirectX"
            }
        },
        "generator" : "Extended Khronos glTF Blender I/O v1.0.0",
        "version" : "2.0"
    },
    "extensionsUsed" : [
        "ASOBO_normal_map_convention"
    ],
    "scene" : 0,
    "scenes" : [
        {
            "name" : "Scene",
            "nodes" : [
                0,
                1,
                2
            ]
        }
    ],
    "nodes" : [
        {
            "mesh" : 0,
            "name" : "Cylinder",
            "rotation" : [
                -0.46467459201812744,
                0,
                0,
                0.8854815363883972
            ],
            "scale" : [
                0.04943624883890152,
                5.132981777191162,
                -0.2207954078912735
            ],
            "translation" : [
                -37.187137603759766,
                16.951581954956055,
                -10.490068435668945
            ]
        },
        {
            "mesh" : 1,
            "name" : "Cylinder.001",
            "rotation" : [
                0.4648420512676239,
                0,
                0,
                0.8853936195373535
            ],
            "scale" : [
                0.04943624883890152,
                5.132981777191162,
                -0.2207954078912735
            ],
            "translation" : [
                -37.187137603759766,
                16.951581954956055,
                10.96082878112793
            ]
        },
        {
            "mesh" : 2,
            "name" : "Flag.001",
            "rotation" : [
                -0.5000001192092896,
                0.5,
                0.5000001788139343,
                0.49999991059303284
            ],
            "scale" : [
                6.891704559326172,
                6.891704559326172,
                3.55387544631958
            ],
            "translation" : [
                -37.13542175292969,
                10.457032203674316,
                0.19399070739746094
            ]
        }
    ],
    "materials" : [
        {
            "doubleSided" : true,
            "emissiveFactor" : [
                0,
                0,
                0
            ],
            "name" : "Material",
            "pbrMetallicRoughness" : {
                "baseColorTexture" : {
                    "index" : 0,
                    "texCoord" : 0
                },
                "metallicFactor" : 0,
                "roughnessFactor" : 0.5
            }
        },
        {
            "doubleSided" : true,
            "emissiveFactor" : [
                0,
                0,
                0
            ],
            "name" : "Flag",
            "pbrMetallicRoughness" : {
                "baseColorTexture" : {
                    "index" : 1,
                    "texCoord" : 0
                },
                "metallicFactor" : 0,
                "roughnessFactor" : 1
            }
        }
    ],
    "meshes" : [
        {
            "name" : "Cylinder.004",
            "primitives" : [
                {
                    "attributes" : {
                        "POSITION" : 0,
                        "NORMAL" : 1,
                        "TEXCOORD_0" : 2
                    },
                    "indices" : 3,
                    "material" : 0
                }
            ]
        },
        {
            "name" : "Cylinder.005",
            "primitives" : [
                {
                    "attributes" : {
                        "POSITION" : 4,
                        "NORMAL" : 5,
                        "TEXCOORD_0" : 6
                    },
                    "indices" : 3,
                    "material" : 0
                }
            ]
        },
        {
            "name" : "Plane.002",
            "primitives" : [
                {
                    "attributes" : {
                        "POSITION" : 7,
                        "NORMAL" : 8,
                        "TEXCOORD_0" : 9
                    },
                    "indices" : 10,
                    "material" : 1
                }
            ]
        }
    ],
    "textures" : [
        {
            "source" : 0
        },
        {
            "source" : 1
        }
    ],
    "images" : [
        {
            "mimeType" : "image/png",
            "name" : "rope_black",
            "uri" : "rope_black.png"
        },
        {
            "mimeType" : "image/png",
            "name" : "Flag_Cargo_BaseColor",
            "uri" : "Flag_Cargo_BaseColor.png"
        }
    ],
    "accessors" : [
        {
            "bufferView" : 0,
            "componentType" : 5126,
            "count" : 130,
            "max" : [
                1,
                1,
                1
            ],
            "min" : [
                -1,
                -1,
                -1
            ],
            "type" : "VEC3"
        },
        {
            "bufferView" : 1,
            "componentType" : 5126,
            "count" : 130,
            "type" : "VEC3"
        },
        {
            "bufferView" : 2,
            "componentType" : 5126,
            "count" : 130,
            "type" : "VEC2"
        },
        {
            "bufferView" : 3,
            "componentType" : 5123,
            "count" : 372,
            "type" : "SCALAR"
        },
        {
            "bufferView" : 4,
            "componentType" : 5126,
            "count" : 130,
            "max" : [
                1,
                1,
                1
            ],
            "min" : [
                -1,
                -1,
                -1
            ],
            "type" : "VEC3"
        },
        {
            "bufferView" : 5,
            "componentType" : 5126,
            "count" : 130,
            "type" : "VEC3"
        },
        {
            "bufferView" : 6,
            "componentType" : 5126,
            "count" : 130,
            "type" : "VEC2"
        },
        {
            "bufferView" : 7,
            "componentType" : 5126,
            "count" : 857,
            "max" : [
                1.0856608152389526,
                0.017654605209827423,
                1.200109601020813
            ],
            "min" : [
                -1.0847946405410767,
                -0.010763912461698055,
                -1.033699631690979
            ],
            "type" : "VEC3"
        },
        {
            "bufferView" : 8,
            "componentType" : 5126,
            "count" : 857,
            "type" : "VEC3"
        },
        {
            "bufferView" : 9,
            "componentType" : 5126,
            "count" : 857,
            "type" : "VEC2"
        },
        {
            "bufferView" : 10,
            "componentType" : 5123,
            "count" : 4320,
            "type" : "SCALAR"
        }
    ],
    "bufferViews" : [
        {
            "buffer" : 0,
            "byteLength" : 1560,
            "byteOffset" : 0
        },
        {
            "buffer" : 0,
            "byteLength" : 1560,
            "byteOffset" : 1560
        },
        {
            "buffer" : 0,
            "byteLength" : 1040,
            "byteOffset" : 3120
        },
        {
            "buffer" : 0,
            "byteLength" : 744,
            "byteOffset" : 4160
        },
        {
            "buffer" : 0,
            "byteLength" : 1560,
            "byteOffset" : 4904
        },
        {
            "buffer" : 0,
            "byteLength" : 1560,
            "byteOffset" : 6464
        },
        {
            "buffer" : 0,
            "byteLength" : 1040,
            "byteOffset" : 8024
        },
        {
            "buffer" : 0,
            "byteLength" : 10284,
            "byteOffset" : 9064
        },
        {
            "buffer" : 0,
            "byteLength" : 10284,
            "byteOffset" : 19348
        },
        {
            "buffer" : 0,
            "byteLength" : 6856,
            "byteOffset" : 29632
        },
        {
            "buffer" : 0,
            "byteLength" : 8640,
            "byteOffset" : 36488
        }
    ],
    "buffers" : [
        {
            "byteLength" : 45128,
            "uri" : "destroyerflag.bin"
        }
    ]
}
