{
    "asset" : {
        "extensions" : {
            "ASOBO_normal_map_convention" : {
                "tangent_space_convention" : "DirectX"
            }
        },
        "generator" : "Extended Khronos glTF Blender I/O v1.0.0",
        "version" : "2.0"
    },
    "extensionsUsed" : [
        "ASOBO_normal_map_convention",
        "ASOBO_material_blend_gbuffer"
    ],
    "scene" : 0,
    "scenes" : [
        {
            "name" : "Scene",
            "nodes" : [
                0
            ]
        }
    ],
    "nodes" : [
        {
            "mesh" : 0,
            "name" : "rdservtruck",
            "rotation" : [
                0,
                1,
                0,
                7.549790126404332e-08
            ],
            "scale" : [
                0.0010000000474974513,
                0.0010000000474974513,
                0.0010000000474974513
            ],
            "translation" : [
                -0.10109253227710724,
                0,
                0.09552669525146484
            ]
        }
    ],
    "materials" : [
        {
            "doubleSided" : true,
            "emissiveFactor" : [
                0,
                0,
                0
            ],
            "name" : "cervicetruck_tex",
            "pbrMetallicRoughness" : {
                "baseColorTexture" : {
                    "index" : 0,
                    "texCoord" : 0
                },
                "metallicFactor" : 1,
                "roughnessFactor" : 0.858578622341156
            }
        },
        {
            "alphaMode" : "BLEND",
            "emissiveFactor" : [
                0,
                0,
                0
            ],
            "extensions" : {
                "ASOBO_material_blend_gbuffer" : {
                    "enabled" : true,
                    "baseColorBlendFactor" : 1,
                    "metallicBlendFactor" : 1,
                    "roughnessBlendFactor" : 1,
                    "normalBlendFactor" : 1,
                    "emissiveBlendFactor" : 1,
                    "occlusionBlendFactor" : 1
                }
            },
            "name" : "decals_tex.001",
            "pbrMetallicRoughness" : {
                "baseColorTexture" : {
                    "index" : 1,
                    "texCoord" : 0
                },
                "metallicFactor" : 0,
                "roughnessFactor" : 0.5
            }
        },
        {
            "doubleSided" : true,
            "emissiveFactor" : [
                0,
                0,
                0
            ],
            "name" : "optics_tex.004",
            "pbrMetallicRoughness" : {
                "baseColorTexture" : {
                    "index" : 2,
                    "texCoord" : 0
                },
                "metallicFactor" : 1,
                "roughnessFactor" : 0.5405206680297852
            }
        },
        {
            "doubleSided" : true,
            "emissiveFactor" : [
                0,
                0,
                0
            ],
            "name" : "glass_tex.001",
            "pbrMetallicRoughness" : {
                "baseColorTexture" : {
                    "index" : 3,
                    "texCoord" : 0
                },
                "metallicFactor" : 1,
                "roughnessFactor" : 0.4343145787715912
            }
        },
        {
            "doubleSided" : true,
            "emissiveFactor" : [
                0,
                0,
                0
            ],
            "name" : "glass_tex.002",
            "pbrMetallicRoughness" : {
                "baseColorTexture" : {
                    "index" : 4,
                    "texCoord" : 0
                },
                "metallicFactor" : 1,
                "roughnessFactor" : 0.4343145787715912
            }
        }
    ],
    "meshes" : [
        {
            "name" : "Mesh.005",
            "primitives" : [
                {
                    "attributes" : {
                        "POSITION" : 0,
                        "NORMAL" : 1,
                        "TEXCOORD_0" : 2,
                        "COLOR_0" : 3
                    },
                    "indices" : 4,
                    "material" : 0
                },
                {
                    "attributes" : {
                        "POSITION" : 5,
                        "NORMAL" : 6,
                        "TEXCOORD_0" : 7,
                        "COLOR_0" : 8
                    },
                    "indices" : 9,
                    "material" : 1
                },
                {
                    "attributes" : {
                        "POSITION" : 10,
                        "NORMAL" : 11,
                        "TEXCOORD_0" : 12,
                        "COLOR_0" : 13
                    },
                    "indices" : 14,
                    "material" : 2
                },
                {
                    "attributes" : {
                        "POSITION" : 15,
                        "NORMAL" : 16,
                        "TEXCOORD_0" : 17,
                        "COLOR_0" : 18
                    },
                    "indices" : 19,
                    "material" : 3
                },
                {
                    "attributes" : {
                        "POSITION" : 20,
                        "NORMAL" : 21,
                        "TEXCOORD_0" : 22,
                        "COLOR_0" : 23
                    },
                    "indices" : 24,
                    "material" : 4
                }
            ]
        }
    ],
    "textures" : [
        {
            "source" : 0
        },
        {
            "source" : 1
        },
        {
            "source" : 2
        },
        {
            "source" : 3
        },
        {
            "source" : 4
        }
    ],
    "images" : [
        {
            "mimeType" : "image/png",
            "name" : "servicetruck_albedo",
            "uri" : "servicetruck_albedo.png"
        },
        {
            "mimeType" : "image/png",
            "name" : "rdservtruck_decal",
            "uri" : "rdservtruck_decal.png"
        },
        {
            "mimeType" : "image/jpeg",
            "name" : "servicetruck_CSPOptics",
            "uri" : "servicetruck_CSPOptics.jpg"
        },
        {
            "mimeType" : "image/png",
            "name" : "roadservice_glass1",
            "uri" : "roadservice_glass1.png"
        },
        {
            "mimeType" : "image/png",
            "name" : "roadservice_glass2",
            "uri" : "roadservice_glass2.png"
        }
    ],
    "accessors" : [
        {
            "bufferView" : 0,
            "componentType" : 5126,
            "count" : 8475,
            "max" : [
                1167.805419921875,
                2278.328125,
                2925.865478515625
            ],
            "min" : [
                -1167.805419921875,
                -14.49969482421875,
                -2587.460205078125
            ],
            "type" : "VEC3"
        },
        {
            "bufferView" : 1,
            "componentType" : 5126,
            "count" : 8475,
            "type" : "VEC3"
        },
        {
            "bufferView" : 2,
            "componentType" : 5126,
            "count" : 8475,
            "type" : "VEC2"
        },
        {
            "bufferView" : 3,
            "componentType" : 5126,
            "count" : 8475,
            "type" : "VEC4"
        },
        {
            "bufferView" : 4,
            "componentType" : 5123,
            "count" : 23154,
            "type" : "SCALAR"
        },
        {
            "bufferView" : 5,
            "componentType" : 5126,
            "count" : 12,
            "max" : [
                938.9685668945312,
                956.0880126953125,
                1320.0028076171875
            ],
            "min" : [
                -938.9685668945312,
                744.2515258789062,
                72.77647399902344
            ],
            "type" : "VEC3"
        },
        {
            "bufferView" : 6,
            "componentType" : 5126,
            "count" : 12,
            "type" : "VEC3"
        },
        {
            "bufferView" : 7,
            "componentType" : 5126,
            "count" : 12,
            "type" : "VEC2"
        },
        {
            "bufferView" : 8,
            "componentType" : 5126,
            "count" : 12,
            "type" : "VEC4"
        },
        {
            "bufferView" : 9,
            "componentType" : 5123,
            "count" : 24,
            "type" : "SCALAR"
        },
        {
            "bufferView" : 10,
            "componentType" : 5126,
            "count" : 282,
            "max" : [
                961.3657836914062,
                2001.30078125,
                2765.747802734375
            ],
            "min" : [
                -961.3657836914062,
                634.0758666992188,
                -2343.5
            ],
            "type" : "VEC3"
        },
        {
            "bufferView" : 11,
            "componentType" : 5126,
            "count" : 282,
            "type" : "VEC3"
        },
        {
            "bufferView" : 12,
            "componentType" : 5126,
            "count" : 282,
            "type" : "VEC2"
        },
        {
            "bufferView" : 13,
            "componentType" : 5126,
            "count" : 282,
            "type" : "VEC4"
        },
        {
            "bufferView" : 14,
            "componentType" : 5123,
            "count" : 756,
            "type" : "SCALAR"
        },
        {
            "bufferView" : 15,
            "componentType" : 5126,
            "count" : 89,
            "max" : [
                887.2691040039062,
                1803.243408203125,
                1525.7535400390625
            ],
            "min" : [
                -887.2691040039062,
                1272.4407958984375,
                143.93612670898438
            ],
            "type" : "VEC3"
        },
        {
            "bufferView" : 16,
            "componentType" : 5126,
            "count" : 89,
            "type" : "VEC3"
        },
        {
            "bufferView" : 17,
            "componentType" : 5126,
            "count" : 89,
            "type" : "VEC2"
        },
        {
            "bufferView" : 18,
            "componentType" : 5126,
            "count" : 89,
            "type" : "VEC4"
        },
        {
            "bufferView" : 19,
            "componentType" : 5123,
            "count" : 342,
            "type" : "SCALAR"
        },
        {
            "bufferView" : 20,
            "componentType" : 5126,
            "count" : 140,
            "max" : [
                543.0036010742188,
                2021.9913330078125,
                339.6641540527344
            ],
            "min" : [
                -543.0036010742188,
                1925.467041015625,
                127.30555725097656
            ],
            "type" : "VEC3"
        },
        {
            "bufferView" : 21,
            "componentType" : 5126,
            "count" : 140,
            "type" : "VEC3"
        },
        {
            "bufferView" : 22,
            "componentType" : 5126,
            "count" : 140,
            "type" : "VEC2"
        },
        {
            "bufferView" : 23,
            "componentType" : 5126,
            "count" : 140,
            "type" : "VEC4"
        },
        {
            "bufferView" : 24,
            "componentType" : 5123,
            "count" : 372,
            "type" : "SCALAR"
        }
    ],
    "bufferViews" : [
        {
            "buffer" : 0,
            "byteLength" : 101700,
            "byteOffset" : 0
        },
        {
            "buffer" : 0,
            "byteLength" : 101700,
            "byteOffset" : 101700
        },
        {
            "buffer" : 0,
            "byteLength" : 67800,
            "byteOffset" : 203400
        },
        {
            "buffer" : 0,
            "byteLength" : 135600,
            "byteOffset" : 271200
        },
        {
            "buffer" : 0,
            "byteLength" : 46308,
            "byteOffset" : 406800
        },
        {
            "buffer" : 0,
            "byteLength" : 144,
            "byteOffset" : 453108
        },
        {
            "buffer" : 0,
            "byteLength" : 144,
            "byteOffset" : 453252
        },
        {
            "buffer" : 0,
            "byteLength" : 96,
            "byteOffset" : 453396
        },
        {
            "buffer" : 0,
            "byteLength" : 192,
            "byteOffset" : 453492
        },
        {
            "buffer" : 0,
            "byteLength" : 48,
            "byteOffset" : 453684
        },
        {
            "buffer" : 0,
            "byteLength" : 3384,
            "byteOffset" : 453732
        },
        {
            "buffer" : 0,
            "byteLength" : 3384,
            "byteOffset" : 457116
        },
        {
            "buffer" : 0,
            "byteLength" : 2256,
            "byteOffset" : 460500
        },
        {
            "buffer" : 0,
            "byteLength" : 4512,
            "byteOffset" : 462756
        },
        {
            "buffer" : 0,
            "byteLength" : 1512,
            "byteOffset" : 467268
        },
        {
            "buffer" : 0,
            "byteLength" : 1068,
            "byteOffset" : 468780
        },
        {
            "buffer" : 0,
            "byteLength" : 1068,
            "byteOffset" : 469848
        },
        {
            "buffer" : 0,
            "byteLength" : 712,
            "byteOffset" : 470916
        },
        {
            "buffer" : 0,
            "byteLength" : 1424,
            "byteOffset" : 471628
        },
        {
            "buffer" : 0,
            "byteLength" : 684,
            "byteOffset" : 473052
        },
        {
            "buffer" : 0,
            "byteLength" : 1680,
            "byteOffset" : 473736
        },
        {
            "buffer" : 0,
            "byteLength" : 1680,
            "byteOffset" : 475416
        },
        {
            "buffer" : 0,
            "byteLength" : 1120,
            "byteOffset" : 477096
        },
        {
            "buffer" : 0,
            "byteLength" : 2240,
            "byteOffset" : 478216
        },
        {
            "buffer" : 0,
            "byteLength" : 744,
            "byteOffset" : 480456
        }
    ],
    "buffers" : [
        {
            "byteLength" : 481200,
            "uri" : "roadservice.bin"
        }
    ]
}
